<svg width="16" height="20" viewBox="0 0 16 20" fill="none" xmlns="http://www.w3.org/2000/svg">
<circle cx="8.10744" cy="1.91695" r="1.91668" transform="rotate(60 8.10744 1.91695)" fill="#31434F"/>
<circle cx="2.249" cy="5.29937" r="1.91668" transform="rotate(60 2.249 5.29937)" fill="#31434F"/>
<rect x="7.14902" y="0.257168" width="3.83335" height="6.87748" transform="rotate(60 7.14902 0.257168)" fill="#31434F"/>
<circle cx="11.0951" cy="7.09179" r="1.91668" transform="rotate(60 11.0951 7.09179)" fill="#31434F"/>
<circle cx="8.06826" cy="8.83948" r="1.91668" transform="rotate(60 8.06826 8.83948)" fill="#31434F"/>
<rect x="10.137" y="5.43201" width="3.83335" height="3.49511" transform="rotate(60 10.137 5.43201)" fill="#31434F"/>
<rect x="13.1245" y="10.6069" width="3.83335" height="10.7108" transform="rotate(60 13.1245 10.6069)" fill="#5A8290"/>
<circle cx="14.083" cy="12.2669" r="1.91668" transform="rotate(60 14.083 12.2669)" fill="#5A8290"/>
<circle cx="4.90484" cy="17.5657" r="1.91668" transform="rotate(60 4.90484 17.5657)" fill="#5A8290"/>
<circle cx="1.91698" cy="12.3908" r="1.91668" transform="rotate(60 1.91698 12.3908)" fill="#5A8290"/>
<rect x="0.257043" y="13.3492" width="3.83335" height="6.08826" transform="rotate(-30 0.257043 13.3492)" fill="#5A8290"/>
</svg>
