<svg width="135" height="164" viewBox="0 0 135 164" fill="none" xmlns="http://www.w3.org/2000/svg">
<circle cx="68.2453" cy="16.1365" r="16.1339" transform="rotate(60 68.2453 16.1365)" fill="white"/>
<circle cx="18.9312" cy="44.608" r="16.1339" transform="rotate(60 18.9312 44.608)" fill="white"/>
<rect x="60.1784" y="2.16421" width="32.2677" height="57.8921" transform="rotate(60 60.1784 2.16421)" fill="white"/>
<circle cx="93.3952" cy="59.6974" r="16.1339" transform="rotate(60 93.3952 59.6974)" fill="white"/>
<circle cx="67.9162" cy="74.4076" r="16.1339" transform="rotate(60 67.9162 74.4076)" fill="white"/>
<rect x="85.3284" y="45.7251" width="32.2677" height="29.4205" transform="rotate(60 85.3284 45.7251)" fill="white"/>
<rect x="110.478" y="89.2858" width="32.2677" height="90.1598" transform="rotate(60 110.478 89.2858)" fill="white"/>
<circle cx="118.545" cy="103.258" r="16.1339" transform="rotate(60 118.545 103.258)" fill="white"/>
<circle cx="41.2863" cy="147.863" r="16.1339" transform="rotate(60 41.2863 147.863)" fill="white"/>
<circle cx="16.1365" cy="104.303" r="16.1339" transform="rotate(60 16.1365 104.303)" fill="white"/>
<rect x="2.16418" y="112.37" width="32.2677" height="51.2487" transform="rotate(-30 2.16418 112.37)" fill="white"/>
</svg>
