<svg width="17" height="17" viewBox="0 0 17 17" fill="none" xmlns="http://www.w3.org/2000/svg">
<path d="M14.125 16C14.7463 16 15.25 15.4963 15.25 14.875C15.25 14.2537 14.7463 13.75 14.125 13.75C13.5037 13.75 13 14.2537 13 14.875C13 15.4963 13.5037 16 14.125 16Z" fill="#D9D9D9" stroke="#31434F" stroke-width="2" stroke-linecap="round" stroke-linejoin="round"/>
<path d="M6.625 16C7.2463 16 7.75 15.4963 7.75 14.875C7.75 14.2537 7.2463 13.75 6.625 13.75C6.00368 13.75 5.5 14.2537 5.5 14.875C5.5 15.4963 6.00368 16 6.625 16Z" fill="#D9D9D9" stroke="#31434F" stroke-width="2" stroke-linecap="round" stroke-linejoin="round"/>
<path d="M3.25 2.5H16L14.5 10.75H4.75L3.25 2.5ZM3.25 2.5C3.125 2 2.5 1 1 1" stroke="#31434F" stroke-width="2" stroke-linecap="round" stroke-linejoin="round"/>
<path d="M14.5 10.75H4.75H3.42308C2.08485 10.75 1.375 11.3359 1.375 12.25C1.375 13.1641 2.08485 13.75 3.42308 13.75H14.125" stroke="#31434F" stroke-width="2" stroke-linecap="round" stroke-linejoin="round"/>
</svg>
