<svg width="81" height="58" viewBox="0 0 81 58" fill="none" xmlns="http://www.w3.org/2000/svg">
<path d="M47.7096 2.8064H75.3999C76.6399 2.8064 77.645 3.81159 77.645 5.05155V52.9483C77.645 54.1883 76.6399 55.1934 75.3999 55.1934H47.7096M47.7096 2.8064V55.1934M47.7096 2.8064H32.7418M47.7096 55.1934H32.7418M32.7418 2.8064H5.05155C3.81159 2.8064 2.8064 3.81159 2.8064 5.05155V52.9483C2.8064 54.1883 3.81159 55.1934 5.05155 55.1934H32.7418M32.7418 2.8064V55.1934" stroke="#FFFEFE" stroke-width="5.60557" stroke-linecap="round" stroke-linejoin="round"/>
<path d="M21.5161 20.9499C21.5161 19.4004 19.97 18.3365 18.7119 19.241C15.8779 21.2787 14.0322 24.6048 14.0322 28.3617C14.0322 32.1186 15.8779 35.4448 18.7119 37.4823C19.97 38.3867 21.5161 37.3232 21.5161 35.7737C21.5161 31.0813 21.5161 26.6681 21.5161 20.9499Z" fill="white"/>
<path d="M58.9353 20.9499C58.9353 19.4004 60.4815 18.3365 61.7395 19.241C64.5736 21.2787 66.4192 24.6048 66.4192 28.3617C66.4192 32.1186 64.5736 35.4448 61.7395 37.4823C60.4815 38.3867 58.9353 37.3232 58.9353 35.7737C58.9353 31.0813 58.9353 26.6681 58.9353 20.9499Z" fill="white"/>
</svg>
