<svg width="34" height="34" viewBox="0 0 34 34" fill="none" xmlns="http://www.w3.org/2000/svg">
<path d="M28.594 32.4585C29.8746 32.4585 30.9128 31.4203 30.9128 30.1398C30.9128 28.8592 29.8746 27.821 28.594 27.821C27.3134 27.821 26.2752 28.8592 26.2752 30.1398C26.2752 31.4203 27.3134 32.4585 28.594 32.4585Z" fill="#A44CD3" stroke="white" stroke-width="3" stroke-linecap="round" stroke-linejoin="round"/>
<path d="M13.1353 32.4585C14.4159 32.4585 15.4541 31.4203 15.4541 30.1398C15.4541 28.8592 14.4159 27.821 13.1353 27.821C11.8547 27.821 10.8165 28.8592 10.8165 30.1398C10.8165 31.4203 11.8547 32.4585 13.1353 32.4585Z" fill="#A44CD3" stroke="white" stroke-width="3" stroke-linecap="round" stroke-linejoin="round"/>
<path d="M6.17896 4.63309H32.4586L29.3669 21.6376H9.27068L6.17896 4.63309ZM6.17896 4.63309C5.92131 3.60252 4.63309 1.54137 1.54137 1.54137" stroke="white" stroke-width="3" stroke-linecap="round" stroke-linejoin="round"/>
<path d="M29.3669 21.6374H9.27068H6.53569C3.7774 21.6374 2.3143 22.845 2.3143 24.7291C2.3143 26.6132 3.7774 27.8209 6.53569 27.8209H28.5939" stroke="white" stroke-width="3" stroke-linecap="round" stroke-linejoin="round"/>
</svg>
