<svg width="125" height="130" viewBox="0 0 125 130" fill="none" xmlns="http://www.w3.org/2000/svg">
<path d="M2.03894 33.903L60.1686 59.7387L64.1034 50.8852L5.97367 25.0497L2.03894 33.903ZM66.9801 126.359V55.3118H57.2919V126.359H66.9801ZM64.1034 59.7387L122.233 33.903L118.298 25.0497L60.1686 50.8852L64.1034 59.7387Z" fill="#31434F"/>
<path d="M4.00647 98.0055V31.9948C4.00647 30.4634 4.90838 29.0756 6.30789 28.4536L60.5621 4.34047C61.5646 3.89514 62.7078 3.89514 63.7102 4.34047L117.965 28.4536C119.364 29.0756 120.266 30.4634 120.266 31.9948V98.0055C120.266 99.5369 119.364 100.925 117.965 101.547L63.7102 125.66C62.7078 126.105 61.5646 126.105 60.5621 125.66L6.30789 101.547C4.90838 100.925 4.00647 99.5369 4.00647 98.0055Z" stroke="#31434F" stroke-width="8" stroke-linecap="round" stroke-linejoin="round"/>
<path d="M33.0714 16.5585L88.8998 41.3711C90.2994 41.9931 91.2011 43.3809 91.2011 44.9123V68.2293" stroke="#31434F" stroke-width="8" stroke-linecap="round" stroke-linejoin="round"/>
</svg>
